<?xml version="1.0" encoding="utf-8"?>
<!-- Generator: Adobe Illustrator 16.0.4, SVG Export Plug-In . SVG Version: 6.00 Build 0)  -->
<!DOCTYPE svg PUBLIC "-//W3C//DTD SVG 1.1//EN" "http://www.w3.org/Graphics/SVG/1.1/DTD/svg11.dtd">
<svg version="1.1" xmlns="http://www.w3.org/2000/svg" xmlns:xlink="http://www.w3.org/1999/xlink" x="0px" y="0px" width="432px"
	 height="432px" viewBox="0 0 432 432" enable-background="new 0 0 432 432" xml:space="preserve">
<g id="Layer_3">
</g>
<g id="Layer_1">
</g>
<g id="Layer_2">
	<g>
		<g id="XMLID_2_">
			<g>
				<g id="XMLID_3_">
					<g>
						<path d="M370.09,117.076c-27.96-41.64-78.811-57.65-127.09-54.42c-56.78,3.8-111.26,32.25-149.98,73.4
							c-33.13,35.22-56.64,83.41-52.76,132.67c1.75,22.159,9.609,43.55,23.061,61.279c14.149,18.67,33.949,32.08,55.85,40.03
							c50.88,18.479,108.96,7.24,155.561-17.7c47.389-25.359,87.59-67.31,105.659-118.439
							C393.949,195.516,393.029,151.716,370.09,117.076z"/>
					</g>
				</g>
			</g>
		</g>
		<path fill="#25DCFE" d="M367.656,118.493c26.539,40.067,22.523,90.895,2.498,132.783
			c-24.361,50.963-70.938,90.523-123.205,110.763c-48.115,18.624-106.564,21.516-151.684-6.677
			c-19.929-12.454-35.617-31.084-44.363-52.898c-8.466-21.094-10.008-44.397-6.43-66.718c8.375-52.245,43.031-97.768,85.264-128.053
			c45.326-32.496,104.236-50.709,159.807-39.307C320.822,74.804,349.674,91.712,367.656,118.493z M339.758,231.477l-57.566-115.312
			l-1.311-0.934l-6.75-0.753l-13.5,6.75l17.094,38.109l-11.373,6.705l-18.281-33.75l-0.939-1.125l-4.686-1.969l-20.887,6.807
			l-26.004-0.169l-21.173-1.294l-2.515,2.166l-63.748,132.559l-33.846,18.096l-4.219,6.047l8.252,14.096l44.168-15.165l1.996-2.002
			l26.922-53.207l78.621-0.124l14.467,42.756l14.463,11.093l0.578,0.444l24.941-5.158l2.582-1.834l20.531-20.109l-19.936-46.946
			l14.418-10.249l13.512,24.57l9.748,10.969l1.873,1.311l11.857-11.677L339.758,231.477z"/>
		<path d="M282.191,116.165l57.566,115.312l-0.709,0.698l-0.822-0.839l-57.668-114.165l-14.68,6.868l18.844,42.462l-16.33,10.002
			l-21.668-42.666l-19.658,8.955l59.557,139.562l19.17-18.343l-19.373-46.248l1.221-0.513l19.936,46.946l-20.531,20.109
			l-2.582,1.834l-24.941,5.158l-0.578-0.444l0.955-1.243l22.826-5.107l-57.848-141.379l-29.401-0.287l-9,23.001l16.048,0.585
			l14.721,31.877l-46.771,0.534l-18.208,36.669h77.749v1.502l-78.621,0.124l-26.922,53.207l-1.996,2.002l-44.168,15.165
			l-8.252-14.096l4.219-6.047l33.846-18.096l63.748-132.559l2.515-2.166l21.173,1.294l26.004,0.169l20.887-6.807l4.686,1.969
			l0.939,1.125l18.281,33.75l11.373-6.705l-17.094-38.109l13.5-6.75l6.75,0.753L282.191,116.165z M205.725,186.173l-5.355-17.685
			l-13.814,0.017l-7.667,17.499L205.725,186.173z M187.224,156.67l5.721-13.691l-13.877-0.562l-4.68,13.421L187.224,156.67z
			 M167.891,198.756l18.5-39.42l-13.668-0.832L155.64,198.88L167.891,198.756z M171.867,155.174l5.137-14.259l-4.389-2.897
			l-5.736,15.463L171.867,155.174z M153.007,197.541l17.735-40.117l-5.175-1.884l-19.108,38.728L153.007,197.541z M123.808,288.841
			l42.699-87.739l-11.868-0.096l-39.066,75.201L123.808,288.841z M113.463,273.957l38.419-73.789l-6.638-3.088l-35.814,73.406
			L113.463,273.957z M121.592,291.299l-8.365-13.781l-8.719,4.219l6.959,12.746L121.592,291.299z M103.242,280.189l8.719-4.219
			l-5.062-4.359l-7.312,3.656L103.242,280.189z M109.031,295.607l-6.914-12.465l-18.422,7.875l4.523,12.094L109.031,295.607z
			 M101.088,280.893l-3.049-4.641l-17.297,8.297l1.666,4.123L101.088,280.893z M85.945,303.674l-4.359-12.094l-9.141,3.797
			l6.211,10.732L85.945,303.674z M80.529,289.426l-1.379-3.656l-4.01,2.238l-3.668,5.164L80.529,289.426z"/>
		<polygon points="338.227,231.336 339.049,232.175 327.191,243.852 325.318,242.541 315.57,231.572 302.059,207.002 
			287.641,217.251 286.42,217.764 285.893,216.503 303.195,202.98 327.225,242.17 		"/>
		<polygon fill="#0FF708" points="280.559,117.171 338.227,231.336 327.225,242.17 303.195,202.98 285.893,216.503 286.42,217.764 
			305.793,264.012 286.623,282.354 227.066,142.793 246.725,133.838 268.393,176.504 284.723,166.502 265.879,124.04 		"/>
		<polygon fill="#FD15A5" points="224.877,143.125 282.725,284.504 259.898,289.611 258.426,287.327 232.887,235.504 
			230.014,235.504 152.265,235.504 170.473,198.835 217.244,198.301 202.523,166.424 186.476,165.839 195.476,142.838 		"/>
		<polygon points="258.426,287.327 259.898,289.611 258.943,290.854 244.48,279.762 230.014,237.006 230.014,235.504 
			232.887,235.504 		"/>
		<polygon fill="#25DCFE" points="200.369,168.488 205.725,186.173 178.888,186.004 186.555,168.505 		"/>
		<polygon fill="#1F201F" points="192.944,142.979 187.224,156.67 174.388,155.837 179.067,142.416 		"/>
		<polygon fill="#0F14FB" points="186.391,159.336 167.891,198.756 155.64,198.88 172.723,158.504 		"/>
		<polygon fill="#1F201F" points="177.004,140.915 171.867,155.174 166.879,153.48 172.615,138.018 		"/>
		<polygon fill="#0F14FB" points="170.742,157.424 153.007,197.541 146.459,194.268 165.567,155.54 		"/>
		<polygon fill="#1F201F" points="166.507,201.102 123.808,288.841 115.572,276.207 154.639,201.006 		"/>
		<polygon fill="#1F201F" points="151.882,200.168 113.463,273.957 109.43,270.486 145.244,197.08 		"/>
		<polygon fill="#1F201F" points="113.227,277.518 121.592,291.299 111.467,294.482 104.508,281.736 		"/>
		<polygon fill="#1F201F" points="111.961,275.971 103.242,280.189 99.586,275.268 106.898,271.611 		"/>
		<polygon fill="#E903F0" points="102.117,283.143 109.031,295.607 88.219,303.111 83.695,291.018 		"/>
		<polygon fill="#E903F0" points="98.039,276.252 101.088,280.893 82.408,288.672 80.742,284.549 		"/>
		<polygon fill="#1F201F" points="81.586,291.58 85.945,303.674 78.656,306.109 72.445,295.377 		"/>
		<polygon fill="#1F201F" points="79.15,285.77 80.529,289.426 71.473,293.172 75.141,288.008 		"/>
	</g>
	<g>
		<path d="M138.924,245.719l-0.021-0.01c-2.219-1.035-3.168-3.541-2.092-5.846c0.725-1.555,1.842-2.25,3.08-2.494l0.488,2.162
			c-0.736,0.186-1.326,0.518-1.666,1.246c-0.496,1.064,0.066,2.24,1.176,2.758l0.021,0.01c1.141,0.531,2.381,0.197,2.879-0.867
			c0.369-0.793,0.219-1.432-0.125-2.148l1.871-1.059c0.654,1.178,0.934,2.484,0.152,4.158
			C143.674,245.803,141.193,246.777,138.924,245.719z"/>
		<path d="M142.527,237.986l-0.021-0.012c-2.217-1.033-3.164-3.541-2.092-5.844c0.725-1.555,1.846-2.252,3.084-2.494l0.488,2.16
			c-0.736,0.186-1.328,0.52-1.668,1.248c-0.496,1.064,0.066,2.24,1.176,2.758l0.021,0.01c1.141,0.533,2.383,0.197,2.879-0.869
			c0.369-0.791,0.219-1.434-0.123-2.146l1.871-1.061c0.654,1.18,0.932,2.486,0.15,4.16
			C147.279,238.07,144.801,239.045,142.527,237.986z"/>
		<path d="M142.527,228.002l1.037-2.229l3.793-0.441l-2.1-3.189l1.039-2.229l7.609,3.549l-0.979,2.098l-4.369-2.037l2.07,3.334
			l-0.02,0.043l-3.869,0.551l4.357,2.033l-0.963,2.064L142.527,228.002z"/>
	</g>
</g>
</svg>
